<svg width="24" height="46" viewBox="0 0 24 46" fill="none" xmlns="http://www.w3.org/2000/svg">
<g id="Group">
<path id="Vector" d="M21.3615 41.3847H20.8867C20.7247 41.3847 20.5875 41.2271 20.5627 41.018C20.2747 38.3109 19.1698 34.9708 16.6451 31.559C16.483 31.3441 16.4538 31.0061 16.5775 30.754C18.785 26.2594 20.8282 19.5161 19.7189 15.0215C19.4353 13.8671 18.965 12.9189 18.3305 12.2056C18.2022 12.0624 18.2247 11.7988 18.3732 11.6928C19.9574 10.5842 21.0082 8.31831 20.8687 5.75447C20.7045 2.69219 18.8053 0.214291 16.4785 0.0137671C13.7333 -0.223997 11.4425 2.64922 11.4425 6.20995C11.4425 8.04044 12.0478 9.69046 13.0087 10.8249C13.1324 10.9709 13.1077 11.2288 12.9614 11.3319C12.7477 11.478 12.5406 11.6499 12.3404 11.8389C10.0294 14.059 9.29581 18.7169 9.22606 21.1174C9.19455 22.1888 9.25306 23.2401 9.39932 24.2743C9.68735 26.3454 10.3309 28.3449 11.3413 30.3043C11.6473 30.8973 11.9871 31.4587 12.3561 31.9858L14.2306 34.6786C16.1275 37.4716 17.1469 40.2102 17.2931 42.7253C17.2999 42.8198 17.3066 42.9115 17.3089 43.0032C17.3629 44.5902 18.3507 45.8334 19.5613 45.8334H21.4223C22.3651 45.8334 23.128 44.8165 23.1122 43.5675C23.0965 42.3414 22.2954 41.3818 21.3638 41.3818L21.3615 41.3847ZM16.1613 4.4482C16.8993 4.4482 17.5024 5.23884 17.5024 6.20995C17.5024 7.18105 16.9016 7.97169 16.1613 7.97169C15.4209 7.97169 14.8224 7.18105 14.8224 6.20995C14.8224 5.23884 15.4209 4.4482 16.1613 4.4482ZM13.7805 27.0787C12.9254 25.1852 12.5451 23.286 12.6014 21.2893C12.6622 19.2125 13.3417 16.3851 14.3318 15.434C14.5051 15.2679 14.7256 15.1103 15.0564 15.1103C15.2027 15.1103 15.3714 15.1418 15.5694 15.2106C16.069 15.3939 16.3413 15.7377 16.5033 16.3965C17.0028 18.4161 16.1725 22.9164 14.3476 27.0644C14.2216 27.3537 13.9088 27.3595 13.7783 27.0759L13.7805 27.0787Z" fill="white"/>
<path id="Vector_2" d="M10.0401 33.786C9.98839 33.6943 9.89388 33.6743 9.82188 33.7316C7.0721 36.009 5.03114 34.6855 4.1558 34.316C3.04644 33.8462 1.86057 34.5509 1.39703 35.9603L0.53969 38.5642C0.168403 39.6929 0.562192 41.002 1.41953 41.489C2.27687 41.9788 3.27147 41.4575 3.64275 40.3317L4.01179 39.2087C4.07255 39.0225 4.22556 38.9166 4.37633 38.9567C6.18101 39.4293 8.81602 40.0166 11.9461 37.235C12.0293 37.1634 12.0406 37.0087 11.9753 36.9113C11.6806 36.4788 11.3858 36.0347 11.0955 35.5707C10.7242 34.9777 10.3732 34.3819 10.0424 33.786H10.0401Z" fill="white"/>
</g>
</svg>
