<svg width="1248" height="355" viewBox="0 0 1248 355" fill="none" xmlns="http://www.w3.org/2000/svg">
<path d="M89.5 123.399L91 120.499L83.1 120.699L80.6 121.499L70.2 122.699L59.2 122.099L48 121.299L31.5 120.899L16 115.099H13.5L4.6 113.399L1 108.199V105.699L5 102.399L5.6 101.199L11.6 99.0988L15.8 100.599L20 98.6988L22.3 94.8988L36.7 91.7988L43.4 90.7988L46.7 89.0988L51 87.1988H52.2L55.9 86.3988L60.9 89.4988L67.8 87.5988L76.3 88.1988L88.4 87.5988L108.2 85.4988L129.9 84.2988L151.1 85.2988L166.5 82.9988L186.3 85.0988L204.2 85.4988L227.5 90.8988L237.3 97.7988L233.6 99.8988L227.1 101.099L226.5 102.399L221.9 103.699L216.9 104.699L215.6 108.399L210 108.199L206.5 110.699L197.1 109.899L195.9 111.199L195.5 113.699H194.3L192.2 111.999L189.3 112.199H188L187.4 112.399L187 114.099L182.8 110.999L177 113.499L175.3 115.399L165.7 116.599L161.3 116.999L144.4 118.299L139.6 120.399L138.4 120.999L136.1 127.499L129.8 145.799L119.4 176.799L112.5 200.999L107.3 220.199L104 234.599L100.9 242.499L100.3 250.799L97 257.899L96.2 262.099L95.4 266.099L94.1 269.799L93.1 275.599L91.8 280.799L90.3 286.999L87.6 295.299L87 304.199L86 309.999L85.4 316.899L85.8 319.599L84.3 325.899L82 329.699L80.3 341.199L78.2 350.099L76.7 350.899L77.1 353.599L75.9 354.399L72.1 351.099L68.3 328.399L69.1 325.299L67.4 321.599L66.1 310.099L66.3 306.999L66.7 302.999V296.099L65.4 293.399L65.6 269.299L66 262.199L65.6 260.299L67.1 253.999L66.3 251.899L67.6 238.399L68.2 236.499L69.5 218.999L72.2 208.599L74.7 193.599L75.3 191.699L76.3 187.899L77.3 179.399L79.2 173.399L81.5 163.599L83 155.499L85.7 144.699L86.3 143.199L89.4 129.299L89.5 123.399Z" fill="#EB1B27"/>
<path d="M368.4 100.999L369.9 98.1987H371.4L372.7 100.999V111.599L371.4 116.399L371.9 119.699V122.199L370.9 129.799L368.9 133.099L369.4 135.399L367.6 139.899L368.4 145.499V148.499L366.6 155.099L367.1 159.899L365.6 167.499L363.6 175.799V179.099L362.8 180.899L361.8 188.199L359.8 191.499V195.299L357.2 199.599L356.4 204.599L357.6 209.699L357.1 216.799L356.1 218.799L355.1 225.099V228.899L353.3 236.499H352.3L350.8 239.799L349 249.399V253.699L349.5 255.699L349.2 262.299L348.5 268.599L346.5 274.899L344.7 285.799L343.9 291.799L342.2 296.399L341.7 299.199L339.4 301.699L336.9 301.199L336.1 307.299L334.1 310.799L330.3 315.099L327 318.899L324.4 323.399L320.3 327.499L318 327.999L314.5 331.299L312.7 333.799L305.9 336.099H302.6L296.3 338.899H288.2L284.4 339.399L276.3 338.399L264.7 335.099L252.8 328.999L240.9 320.399L230.8 308.799L224.5 301.199L218.4 289.299L213.1 272.399L211.1 267.099L210.3 256.199V248.599L210.6 245.099V233.699L213.1 221.299L214.6 218.799L214.9 214.999L221.7 194.299L225 188.699L226 184.899L229.8 177.099L230.3 174.799L237.1 164.199L239.4 161.399L245.7 150.799L249 147.999L255.3 142.199L259.9 139.399H263.9L266.2 137.899L266.7 136.399H271L278.1 138.399L282.9 143.199L285.5 149.999V155.799L283.7 159.399L282.5 162.399V165.699L279.2 176.799L276.4 187.699L269.1 205.399L263.5 226.899L258.7 247.099L256.7 267.599L258.2 279.699L259.5 285.299L266.1 295.699L275.7 301.699L280.5 304.499L282.3 304.999H286.8L289.6 302.999L295.9 297.899L301 288.599L308.3 273.899L317.4 250.899V249.399L320.7 239.499L327.8 218.299L336.9 191.999L341.2 178.599L342.7 175.799L344.2 173.799V169.499L349 157.599L352.3 147.999L352.8 145.499L361.9 122.199L364.2 115.399L365.2 113.899L367.2 103.499L366.7 101.499L368.4 100.999Z" fill="#EB1B27"/>
<path d="M473.1 135.499L477.8 134.799L484.7 135.199L489.2 136.899L493.6 139.999L498.1 143.099L504.3 150.999L506.3 154.799L508.1 160.999L508.8 165.399L508.1 168.599L508.5 169.199L507.4 174.399L503.3 180.199H502.7L500.9 182.199L499.5 182.599H497.5L495.1 185.299L493.3 187.799L490 189.799L480.6 197.599L477.5 199.699L475.5 202.399L471.4 205.499L468.3 208.199L467 208.899H465.9L461.8 212.699L458.7 213.799L452.2 217.499L450.9 218.899H448.4L444.6 221.299H442.9V222.399L449.4 225.099L470.3 232.699L483.3 238.499L490 241.599L496.5 244.999L506.4 251.199L517.4 257.699L519.4 258.399L521.2 259.699L520.8 260.399L519.7 259.999L515 259.599V260.999L512.5 260.599V260.999L512.9 262.699L510.9 264.099H510L508.7 265.199L507.6 264.499L503.5 263.099L501.1 263.499L497 262.399H496.3L487.1 259.299L481.7 258.399L459.1 250.799L455 248.799L453 248.099L431.1 240.499L424.9 239.199L423.5 242.299L422.2 247.699L420.4 253.499L417.7 263.099L416.6 265.199L415.3 268.299L415.7 270.699L414.6 272.399L413.9 275.799L412.5 278.899L410.1 282.299L408.8 283.699V284.799L407.7 286.799L406 287.899L404.2 293.299L403.1 294.599L402.7 295.699L401 296.799L399.6 299.499H396.2L395.3 301.499L392.2 300.799L391.8 301.899H390L387.6 302.999L385 301.999L378.8 296.199L377.7 295.799L376 292.699L374.9 291.999L375.3 287.899L374.2 286.199L374.6 284.199L376 274.799V268.399L376.4 265.899L379.1 253.199L385.6 231.299L389 215.199L394.1 197.099L396.8 189.899L399.5 184.699V183.399L401.3 181.399L400.9 179.599L402.6 173.099L405.1 167.299V166.199L406.8 163.499L409.2 161.099L412.3 160.699L414.8 159.999L417.9 160.399L421.3 162.399L424.7 163.799H427.4L428.5 163.099L430.9 161.699L441.2 152.499L446.6 148.799L450 145.999L457.5 141.599L466.5 137.799L473.1 135.499ZM482.7 158.899H482L475.8 160.599L473.1 162.999L470 163.999L464.8 167.099L462.1 168.799L460.4 171.299L455.5 175.699V176.999L453.1 178.099L449.7 182.499L447.9 184.599L446.2 188.999L442.8 193.099L442.1 194.399L439.7 199.299L437.9 201.299L434.6 209.199L444.4 205.099L452 200.699L454.4 198.899L464.3 189.699L469.5 184.299L474 177.999L475.4 176.899L476.5 174.899L478.9 171.099L480 167.699L481.7 163.599L482.7 158.899Z" fill="#EB1B27"/>
<path d="M573.6 115.999L576.3 115.099L582.8 115.499L586.9 116.099L587.5 116.799L590 117.199L595.4 119.899L603 128.899L605.7 133.199V133.999L605.3 136.699L606.2 139.499L606.6 149.099L606.2 152.499V155.999V156.599L605.6 161.499L605.2 168.399L604.8 174.599L603.4 184.799L603 187.999L601.3 195.099L600.6 196.899L600.2 201.299L599.3 205.799V208.899L598.6 209.599V211.999L598.2 213.099L598.9 213.999L596.8 217.799V218.899L598.9 221.299V223.399H599.8L598.9 227.799L598.2 229.599L598.9 232.699L597.8 233.599L598.2 235.699V239.699L596.8 240.399L596.1 240.799L596.8 244.899L597.5 245.999L597.1 249.099L597.8 251.499L597.1 252.199L597.5 254.199L597.1 257.299L599.5 271.399L600.2 273.799L599.8 275.199L601.2 279.599L600.8 282.999L601.2 289.899L601.9 291.699L601.2 292.599L601.6 294.399L602.3 297.799L603.2 299.099L602.8 301.499L603.9 307.099L605 311.099V313.599L606.3 318.699L605.9 322.799L602 316.099L598.4 308.799V308.099L597 304.999L592.9 296.799L591.6 292.699L588.5 284.899L588.1 281.799L586.1 277.299L584.3 273.499L582.6 265.699L580.8 261.599L579.5 253.999L578.4 251.299L576.6 244.399L573.9 245.499L568.1 246.199L567.4 246.799L559.9 247.199H554L551.3 247.899L549.3 252.799L549.7 256.499L548.3 261.399L547.4 265.199L547 267.199L546.3 268.299L544.5 273.399L544.3 275.799L543.6 277.199L543.2 280.599L542.1 284.399L540.1 288.499L539.7 290.499L537.7 294.599L536.3 297.699L534.5 299.699L532.1 300.399L530.4 301.699L527 302.399H525L522.5 301.099L520.1 297.999L519.4 293.499L519 292.399V284.899L519.7 279.999L522.1 265.999L523.5 260.399L526.2 247.399L527.6 242.299L528.5 240.499V238.099L525.4 232.999L525 230.899L526.4 229.999L525.7 228.599L526.4 225.899L526.8 223.899V223.499L530.6 222.399L533.3 220.999L535 215.899L535.7 213.199L539.8 200.499L541.1 195.299L541.8 194.899V193.599L546.7 180.599L548.4 176.499L551.1 168.299L553.2 161.399L557 149.799L557.6 148.399L558.3 146.399L562.8 134.299L564.1 132.199L567.3 123.899L570.4 117.699L573.6 115.999ZM569.2 171.799L567.4 178.499L566 182.599L564.9 189.499L564.2 190.599L563.6 194.599L562.2 199.099L560.9 205.299L559.8 210.899V214.899L562.5 215.599L572.1 216.299L573.6 216.199L573.5 207.799L573.1 202.099L573.6 196.499V188.999L573 177.999V168.599L572.3 160.799L569.2 171.799Z" fill="#EB1B27"/>
<path d="M740.4 181.899L739.9 189.099L739 193.399L740.2 195.099L740.7 201.899L740.2 207.299V210.299L739.6 212.799L740.5 215.899L739.4 227.399L739.2 230.899L738.3 242.799L738.1 247.699L736.9 251.099L736.6 254.799L735.7 259.199L734.3 263.999L734 266.199L731.9 271.299L730.5 275.799L729.1 279.199L727.9 282.299V282.899L726.2 284.299L725.1 289.999L723.5 293.199L721.4 295.799L719.3 297.899L718.2 299.599L713.7 301.099L710.6 300.199L707.4 298.599L704.3 296.499L700.8 292.499L696 287.399L691.2 282.199L689 279.699L683.3 274.299L676.5 265.599L674.8 263.099L673.1 261.599L666.3 250.599L662.1 244.399L657.5 238.399L655.5 245.099L654.4 248.499L654.1 250.699L651.9 257.199L649.7 263.999L647.5 269.599L647.7 270.799L646.3 272.999L645.7 276.899L644.8 281.999L643.9 286.899L641.9 291.099L641.6 293.599L641 294.199L640.5 296.999L638.5 296.399L636.7 300.899L635.6 305.199L634.1 307.699L630.7 309.399H629.9L628.7 308.499H626.7L625.2 308.299L624.1 306.499L621 304.299L620.4 302.599L621.3 298.299L621 295.199L621.3 285.899L621.9 280.499L622.2 276.299L623.6 262.099L623.9 258.099L624.5 254.799L625.9 246.599L627.7 232.999L632.5 206.399L633.3 203.899L634.2 200.499L636.2 191.399L638.3 185.499L639.4 182.999L640.9 181.199L641.1 179.799L642.6 178.899L644.3 177.999L647.4 177.499L654.2 179.199L656.7 181.699L657 182.599L659.8 185.599L661.8 188.199L664 194.399L666.3 197.299L667.7 202.099L671.2 208.299L676 215.099L678.3 219.199L680.6 222.099L682.6 224.999L683.9 227.099L686 230.499L687.7 233.799L688 234.699L689.4 238.099L691.2 242.899L693.2 246.299L695.4 248.799L699.2 258.199L700.4 259.899L702.4 262.699L704.2 266.399L704.6 262.199V259.099L705.7 254.999L706.3 250.299L707.1 248.099L707.4 244.999L708.4 240.199L711.4 224.699L712.5 214.399L713.8 207.999L715.2 202.699L716.8 191.199L717.9 185.399V181.899L718.5 178.199L719.3 173.299L720.9 166.399L722 162.199L723.7 157.399L726.8 149.099L729.3 143.999L731.2 139.899L733.2 136.299L735.3 132.599L737.4 127.399L739.4 127.099L741 128.299L741.3 130.399L740.7 133.799L739.4 139.999V140.599L738.8 141.499L740.5 142.599L740.2 145.299L740.5 148.199L740.2 152.699L740.5 156.699L741 162.799L741.2 167.199L740.9 173.299L740.4 181.899Z" fill="#EB1B27"/>
<path d="M795 138.699L794.6 136.199H795.7L798.2 138.299L802.6 138.699H808.6L819.4 140.099L823.1 141.299L824.5 141.699L830.7 144.199L835.7 146.299L837.1 147.699L841.1 149.799L844.7 152.399L846.9 154.199L848 155.599H848.7L851.5 159.299L852.2 161.099L854.3 162.199L855 163.299L858 168.599L860.8 172.599L861.5 176.499L863.3 180.199L864 184.799L865.5 185.899L866.6 190.999L867 198.599L865.9 202.199L867 202.599L867.7 205.099L867.3 207.299L865.9 208.699L865.5 211.499V214.699L864 219.399L862.9 220.499L863.3 223.299L861.2 226.299L859.4 230.199L858 235.999L854.7 242.699L849.3 249.099L843.1 255.599L838.2 259.299L834.9 263.699L833.1 264.399L832.4 265.799L827 268.599L826.6 269.699L823.8 272.299L821 274.099L820.3 274.499V275.199H817.7L811.3 280.199H809.9L808 283.499L804.4 283.099L802.3 284.899L799.7 285.299V285.999L798.3 286.699L797.2 286.299L791.5 288.099L791.9 285.999L788.6 286.699V288.499L787 288.999L785.9 290.899H784.8L783 293.399L781.1 292.999L781.5 295.799L780.1 297.599L778.7 297.999L775.1 296.899L773 298.999H771.8L770.7 297.899L768.9 298.599V298.999L768.2 299.699L765 300.899L764.3 300.199L763.2 301.299L762.5 299.399L762.1 296.899L763.2 296.199V294.399L766.4 291.199L770.7 286.099L768.6 273.199V269.899L768.2 265.599L768.6 262.399L768.2 259.099L768.6 252.199L769 241.399L769.7 231.699L770.1 226.399L769.7 221.999L770.8 221.299L771.5 218.099L771.1 215.599L771.8 214.099V208.099L772.5 204.799L773.7 200.499L774.1 198.699V195.999H774.8L775.5 194.099L776.2 189.099L776.9 183.999L779 178.699V174.999L780.4 169.699L781.9 165.999L781.1 164.599V163.199L778.6 160.699L777.5 156.999V155.599L777.9 154.499L778.3 151.299L779.7 148.699L780.1 147.999L781.5 146.599L784.1 145.499L786.9 145.099L789 143.999L791.6 142.899L792.7 140.399L793.8 138.499H795V138.699ZM813.7 171.799L811.2 171.399H803.5V176.999L801.7 183.599L801 184.699L802.1 187.899L801.4 198.099L801.8 200.599L801 201.999L801.4 208.199L800.7 216.799L800 217.899V222.299L799.3 226.599L798.1 231.699L798.2 236.699L797.5 240.599L796.1 245.999L795.4 247.099L795.2 250.199V255.999L794.3 257.299L795.2 259.899L793.9 262.399L794.6 265.399L795.4 267.999L800.5 265.199L804.1 261.899L806.2 260.499L811.6 256.599L816.9 252.599L821.6 248.999L825.5 245.099L827.4 242.499L829.9 239.999L832.4 237.899L834.5 235.399L838.5 228.899L840.3 226.099L842.4 219.599L842.8 213.399L843.2 208.799L842.1 198.699L839.6 190.399L837 183.999L834.9 181.499L830.3 176.399L825.2 173.599L820.2 172.199L813.7 171.799Z" fill="#EB1B27"/>
<path d="M962.6 130.199L964.3 129.399L968.3 130.199L971.1 129.799L973.2 131.299L975.1 133.399L975.5 134.899L977.6 138.099L979.5 138.899V140.099L979.6 144.799L980.4 148.399L984.8 152.399L988.8 155.599L992.4 159.599L993.6 159.499L995.9 163.099L998.8 166.699L1001.1 170.699L1004 172.999L1004.8 174.699L1006.9 178.599L1006.5 179.799L1008 180.599L1010.1 184.999V185.699L1013.4 188.499L1014.2 191.399L1014.6 196.499L1015.7 196.899L1017.4 200.099L1018.2 208.099L1019.9 213.999L1020.7 220.099L1021.7 223.999L1024.9 224.399L1024.5 226.499L1024.1 229.699V232.899L1024.5 233.699H1025.3L1024.2 238.799L1023.2 245.699L1021.5 252.899V254.099L1020.7 255.199V257.699L1018.8 260.899L1016.9 267.599L1015.2 269.299V271.199L1014.1 273.699L1010.9 277.299L1011.7 278.799L1010.9 279.999L1008.1 281.699L1006.9 283.399L1003.7 284.499L1001.8 287.399L1000.3 290.199L999.1 291.399L993.6 294.699L990.7 295.399L989.6 296.599L986.4 299.099L982 299.899L978 301.099L976.9 302.299L972.1 304.599L966.2 305.399L963 306.599L959.8 307.399L956.9 307.099L953.3 308.599L942.2 307.599L932.7 305.699L921.8 301.299L919.9 300.199L917 298.999L906.7 293.499L901.5 289.599L893.8 282.399L887.7 273.699L883.3 265.399L880 253.799L878.8 247.499L879.1 233.899L879.9 227.199L882.9 214.799L888 203.699L889.5 201.999L889.9 199.899L893.9 193.599L896.9 188.799L906.4 175.599L909.6 171.199L921 156.799L924.2 153.199L925.3 151.999L928.5 149.899L931 145.999L934.2 144.299L936.5 141.499L939.3 140.299L942.5 137.099L946.1 135.399L948.4 133.699L958.7 130.799L959.5 129.999H962.6V130.199ZM965.7 175.599L960.7 171.099L954.9 171.899L950.6 173.099L945.6 179.599L940.2 190.899L932.8 204.699L930.3 209.399L928.6 215.999L926.4 219.999L923.8 227.699L922.7 228.899L918.6 237.399L913.9 248.399L914 258.899L916.1 267.399L918.4 270.199L922.8 274.599L931.7 277.799L947.4 278.199L949.1 277.599L952.4 276.999L958.5 276.399L967.4 272.399L971.3 269.499L975.7 267.799L979.6 262.699L983.5 252.099L986.1 242.599L986.7 238.199L989.5 234.199L988.4 232.499L988.8 221.399L985.4 204.799L982.5 195.999L980.2 191.499L974.7 185.399L969.6 177.699L965.7 175.599Z" fill="#EB1B27"/>
<path d="M1108.9 129.399L1110.3 126.699L1102.9 126.899L1100.6 127.599L1090.9 128.699L1080.6 128.199L1070.1 127.499L1054.6 127.099L1040 121.699H1037.7L1029.4 120.099L1026 115.199V112.899L1029.8 109.799L1030.3 108.699L1035.9 106.699L1039.9 108.099L1043.9 106.299L1046.1 102.699L1059.6 99.7988L1065.9 98.8988L1069 97.2988L1073 95.4988H1074.1L1077.5 94.7988L1082.2 97.6988L1088.7 95.8988L1096.6 96.3988L1108 95.8988L1126.6 93.8988L1147 92.7988L1166.8 93.6988L1181.2 91.4988L1199.8 93.4988L1216.6 93.8988L1238.4 98.9988L1247.6 105.499L1244.2 107.499L1238.1 108.599L1237.6 109.899L1233 110.999L1228.3 111.899L1227 115.299L1221.8 115.099L1218.6 117.399L1209.8 116.699L1208.7 117.999L1208.3 120.299H1207.2L1205.2 118.699L1202.5 118.899H1201.2L1200.7 119.099L1200.3 120.699L1196.3 117.799L1190.9 120.099L1189.3 121.899L1180.3 122.999L1176.2 123.399L1160.3 124.699L1155.8 126.699L1154.7 127.199L1152.5 133.299L1146.5 150.399L1136.8 179.399L1130.3 202.099L1125.4 220.099L1122.3 233.599L1119.4 240.999L1118.9 248.799L1115.8 255.499L1115.1 259.499L1114.4 263.299L1113.1 266.699L1112.2 272.099L1110.9 276.999L1109.5 282.799L1107 290.599L1106.5 298.899L1105.6 304.299L1105.1 310.799L1105.5 313.299L1104.1 319.299L1101.9 322.899L1100.3 333.699L1098.3 341.999L1096.9 342.699L1097.3 345.199L1096.2 345.899L1092.6 342.799L1089 321.499L1089.7 318.599L1088.1 315.199L1086.8 304.399L1087 301.499L1087.4 297.699V291.199L1086.1 288.699L1086.3 266.199L1086.7 259.499L1086.3 257.699L1087.7 251.699L1087 249.699L1088.3 237.099L1088.8 235.299L1090.1 218.899L1092.6 209.199L1094.9 195.099L1095.4 193.299L1096.3 189.699L1097.2 181.799L1099 176.199L1101.2 166.999L1102.6 159.399L1105.1 149.299L1105.6 147.899L1108.5 134.899L1108.9 129.399Z" fill="#EB1B27"/>
<path d="M19.4645 33.4318L12.4946 13.5448H12.3431L12.1158 12.2947L14.3128 5.05963H15.3735L25.2602 33.4318H19.4645ZM0.486609 34V32.9394H9.65359V34H0.486609ZM7.5323 25.6664V24.6436H20.2221V25.6664H7.5323ZM15.1083 34V32.9394H28.1769V34H15.1083ZM3.78217 33.4318L14.3128 5.05963H15.3735L13.2143 11.3098L5.03222 33.4318H3.78217ZM43.6764 34V32.9394H46.7068V18.0146H43.6764V16.954H51.4039V19.9086H51.5554C52.2878 18.5197 53.0959 17.6106 53.9798 17.1812C54.8636 16.7267 55.6591 16.4994 56.3662 16.4994C57.3511 16.4994 58.1213 16.7646 58.6769 17.2949C59.2325 17.8252 59.5103 18.5828 59.5103 19.5677C59.5103 20.5021 59.2577 21.1965 58.7527 21.6511C58.2476 22.0804 57.6415 22.2951 56.9344 22.2951C56.3283 22.2951 55.7728 22.1183 55.2677 21.7647C54.7879 21.4112 54.548 20.9061 54.548 20.2495C54.548 19.9212 54.5985 19.6687 54.6995 19.4919C54.8005 19.3152 54.851 19.1636 54.851 19.0374C54.851 18.9364 54.8258 18.8606 54.7753 18.8101C54.7247 18.7343 54.5985 18.6965 54.3965 18.6965C54.0429 18.6965 53.6262 18.9616 53.1464 19.4919C52.6666 20.0223 52.2499 20.7167 51.8964 21.5753C51.5681 22.434 51.4039 23.381 51.4039 24.4163V32.9394H54.3207V34H43.6764ZM86.1755 34.4924C84.9128 34.4924 83.7259 34.2399 82.6147 33.7348C81.5036 33.2298 80.5187 32.5479 79.6601 31.6893C78.8267 30.8307 78.1701 29.8711 77.6903 28.8104C77.2358 27.7245 77.0085 26.5881 77.0085 25.4012C77.0085 23.9113 77.3747 22.4971 78.107 21.1587C78.8646 19.795 79.9126 18.6838 81.251 17.8252C82.5895 16.9413 84.1552 16.4994 85.9482 16.4994C87.3876 16.4994 88.6755 16.8024 89.8119 17.4085C90.9736 18.0146 91.8827 18.8859 92.5393 20.0223C93.2212 21.1334 93.5621 22.434 93.5621 23.9239V24.2648H80.7965V23.2042H88.6755V20.9693C88.6755 18.747 87.7159 17.6358 85.7967 17.6358C84.9885 17.6358 84.332 17.8757 83.8269 18.3555C83.3471 18.8353 82.9935 19.6561 82.7663 20.8177C82.539 21.9794 82.4253 23.5577 82.4253 25.5527C82.4253 27.5983 82.539 29.1766 82.7663 30.2878C83.0188 31.3989 83.4228 32.1691 83.9784 32.5984C84.5592 33.0277 85.3421 33.2424 86.327 33.2424C87.6654 33.2424 88.8523 32.9141 89.8877 32.2575C90.9231 31.5757 91.7943 30.414 92.5014 28.7726H93.6757C93.1454 30.515 92.211 31.904 90.8726 32.9394C89.5342 33.9747 87.9684 34.4924 86.1755 34.4924ZM125.475 33.4318V20.3253C125.475 18.7596 124.806 17.9767 123.468 17.9767C122.634 17.9767 121.877 18.3177 121.195 18.9995C120.513 19.6813 119.958 20.6157 119.528 21.8026C119.124 22.9643 118.922 24.2901 118.922 25.78L118.165 20.098H119.074C119.604 19.0121 120.336 18.1409 121.271 17.4843C122.205 16.8277 123.405 16.4994 124.869 16.4994C126.435 16.4994 127.71 16.9035 128.695 17.7116C129.68 18.4944 130.173 19.4667 130.173 20.6283V33.4318H125.475ZM111.195 34V32.9394H121.384V34H111.195ZM114.225 33.4318V17.5601H118.922V33.4318H114.225ZM122.748 34V32.9394H132.635V34H122.748ZM111.195 18.0146V16.954H118.922V18.0146H111.195ZM154.812 34.4546C153.398 34.4546 152.237 34.0631 151.327 33.2803C150.418 32.4974 149.964 31.462 149.964 30.1741C149.964 28.962 150.38 27.9266 151.214 27.0679C152.072 26.1841 153.272 25.5149 154.812 25.0603C156.378 24.5805 158.209 24.3406 160.305 24.3406V19.8329C160.305 19.1763 160.052 18.6586 159.547 18.2798C159.068 17.901 158.411 17.7116 157.578 17.7116C156.871 17.7116 156.277 17.8378 155.797 18.0904C155.317 18.3429 155.078 18.6712 155.078 19.0753C155.078 19.3783 155.191 19.6435 155.418 19.8707C155.646 20.0728 155.759 20.4137 155.759 20.8935C155.759 21.4996 155.532 22.0173 155.078 22.4466C154.623 22.8506 154.055 23.0527 153.373 23.0527C152.716 23.0527 152.173 22.838 151.744 22.4087C151.34 21.9794 151.138 21.4364 151.138 20.7799C151.138 19.9717 151.454 19.252 152.085 18.6207C152.716 17.9641 153.575 17.4464 154.661 17.0676C155.772 16.6888 157.009 16.4994 158.373 16.4994C160.318 16.4994 161.909 16.8656 163.146 17.5979C164.383 18.305 165.002 19.2394 165.002 20.4011V31.6514C165.002 31.904 165.078 32.1186 165.229 32.2954C165.406 32.4469 165.608 32.5227 165.835 32.5227C166.063 32.5227 166.303 32.4217 166.555 32.2196C166.833 32.0176 167.199 31.6641 167.654 31.159L168.298 31.9166C167.01 33.6086 165.558 34.4546 163.941 34.4546C162.982 34.4546 162.212 34.2147 161.631 33.7348C161.05 33.255 160.659 32.5984 160.456 31.7651H160.305C159.825 32.4722 159.093 33.1035 158.108 33.6591C157.123 34.1894 156.025 34.4546 154.812 34.4546ZM157.237 32.3712C158.121 32.3712 158.853 32.0176 159.434 31.3105C160.015 30.5782 160.305 29.6312 160.305 28.4695V25.4391C158.537 25.4391 157.186 25.7927 156.252 26.4997C155.343 27.1816 154.888 28.1917 154.888 29.5302C154.888 30.3888 155.09 31.0832 155.494 31.6136C155.898 32.1186 156.479 32.3712 157.237 32.3712ZM236.961 34.4546C235.648 34.4546 234.41 34.0884 233.249 33.356C232.087 32.5984 231.127 31.5504 230.37 30.212C229.637 28.8483 229.271 27.27 229.271 25.477C229.271 23.684 229.637 22.1183 230.37 20.7799C231.102 19.4162 232.049 18.3682 233.211 17.6358C234.372 16.8782 235.61 16.4994 236.923 16.4994C238.11 16.4994 239.145 16.7519 240.029 17.257C240.938 17.7621 241.595 18.3934 241.999 19.151H242.908L242.15 24.9088C242.15 22.4592 241.709 20.6788 240.825 19.5677C239.966 18.4565 238.893 17.901 237.605 17.901C236.898 17.901 236.33 18.103 235.9 18.5071C235.471 18.9111 235.155 19.6687 234.953 20.7799C234.751 21.8658 234.65 23.4441 234.65 25.5149C234.65 27.5604 234.739 29.1387 234.915 30.2499C235.117 31.3358 235.433 32.0807 235.862 32.4848C236.292 32.8636 236.86 33.053 237.567 33.053C238.855 33.053 239.941 32.4974 240.825 31.3863C241.709 30.2499 242.15 28.4695 242.15 26.0452L242.908 31.803H241.999C241.595 32.5606 240.951 33.1919 240.067 33.697C239.183 34.202 238.148 34.4546 236.961 34.4546ZM242.15 34V32.9394H249.651V34H242.15ZM242.15 33.4318V6.04451H246.848V33.4318H242.15ZM238.4 6.49907V5.43843H246.848V6.49907H238.4ZM269.447 33.4318V17.7116H274.182V33.4318H269.447ZM266.417 34V32.9394H276.91V34H266.417ZM266.227 18.1661V17.1055H274.182V18.1661H266.227ZM271.606 11.9538C270.874 11.9538 270.23 11.6886 269.674 11.1583C269.119 10.6027 268.841 9.94616 268.841 9.18856C268.841 8.43095 269.119 7.77437 269.674 7.21879C270.23 6.66322 270.874 6.38543 271.606 6.38543C272.364 6.38543 273.021 6.66322 273.576 7.21879C274.132 7.77437 274.409 8.43095 274.409 9.18856C274.409 9.94616 274.132 10.6027 273.576 11.1583C273.021 11.6886 272.364 11.9538 271.606 11.9538ZM349.543 34.3788L339.542 6.00663H345.376L352.308 25.7421H352.46L352.763 27.0679L350.603 34.3788H349.543ZM349.543 34.3788L351.626 28.0528L359.392 6.00663H360.642L350.603 34.3788H349.543ZM336.361 6.49907V5.43843H349.24V6.49907H336.361ZM354.77 6.49907V5.43843H363.596V6.49907H354.77ZM386.035 34.4924C384.772 34.4924 383.585 34.2399 382.474 33.7348C381.363 33.2298 380.378 32.5479 379.519 31.6893C378.686 30.8307 378.029 29.8711 377.55 28.8104C377.095 27.7245 376.868 26.5881 376.868 25.4012C376.868 23.9113 377.234 22.4971 377.966 21.1587C378.724 19.795 379.772 18.6838 381.11 17.8252C382.449 16.9413 384.014 16.4994 385.807 16.4994C387.247 16.4994 388.535 16.8024 389.671 17.4085C390.833 18.0146 391.742 18.8859 392.399 20.0223C393.08 21.1334 393.421 22.434 393.421 23.9239V24.2648H380.656V23.2042H388.535V20.9693C388.535 18.747 387.575 17.6358 385.656 17.6358C384.848 17.6358 384.191 17.8757 383.686 18.3555C383.206 18.8353 382.853 19.6561 382.625 20.8177C382.398 21.9794 382.285 23.5577 382.285 25.5527C382.285 27.5983 382.398 29.1766 382.625 30.2878C382.878 31.3989 383.282 32.1691 383.838 32.5984C384.418 33.0277 385.201 33.2424 386.186 33.2424C387.525 33.2424 388.712 32.9141 389.747 32.2575C390.782 31.5757 391.654 30.414 392.361 28.7726H393.535C393.005 30.515 392.07 31.904 390.732 32.9394C389.393 33.9747 387.828 34.4924 386.035 34.4924ZM411.054 34V32.9394H414.084V18.0146H411.054V16.954H418.781V19.9086H418.933C419.665 18.5197 420.473 17.6106 421.357 17.1812C422.241 16.7267 423.037 16.4994 423.744 16.4994C424.729 16.4994 425.499 16.7646 426.054 17.2949C426.61 17.8252 426.888 18.5828 426.888 19.5677C426.888 20.5021 426.635 21.1965 426.13 21.6511C425.625 22.0804 425.019 22.2951 424.312 22.2951C423.706 22.2951 423.15 22.1183 422.645 21.7647C422.165 21.4112 421.925 20.9061 421.925 20.2495C421.925 19.9212 421.976 19.6687 422.077 19.4919C422.178 19.3152 422.228 19.1636 422.228 19.0374C422.228 18.9364 422.203 18.8606 422.153 18.8101C422.102 18.7343 421.976 18.6965 421.774 18.6965C421.42 18.6965 421.004 18.9616 420.524 19.4919C420.044 20.0223 419.627 20.7167 419.274 21.5753C418.946 22.434 418.781 23.381 418.781 24.4163V32.9394H421.698V34H411.054ZM453.555 34.4924C452.292 34.4924 451.105 34.2652 449.994 33.8106C448.908 33.3308 447.936 32.6742 447.077 31.8408C446.244 31.0075 445.587 30.0478 445.107 28.962C444.628 27.8761 444.388 26.7144 444.388 25.477C444.388 24.2396 444.628 23.0779 445.107 21.992C445.587 20.9061 446.244 19.9591 447.077 19.151C447.936 18.3177 448.908 17.6737 449.994 17.2191C451.105 16.7393 452.305 16.4994 453.593 16.4994C454.855 16.4994 456.042 16.7393 457.153 17.2191C458.264 17.6737 459.237 18.3177 460.07 19.151C460.929 19.9591 461.585 20.9061 462.04 21.992C462.52 23.0779 462.76 24.2396 462.76 25.477C462.76 26.7144 462.52 27.8761 462.04 28.962C461.585 30.0478 460.929 31.0075 460.07 31.8408C459.237 32.6742 458.264 33.3308 457.153 33.8106C456.042 34.2652 454.843 34.4924 453.555 34.4924ZM453.555 33.2424C454.489 33.2424 455.234 33.0404 455.79 32.6363C456.345 32.207 456.749 31.4368 457.002 30.3256C457.254 29.2145 457.381 27.6109 457.381 25.5149C457.381 23.3936 457.254 21.7774 457.002 20.6662C456.749 19.5298 456.345 18.7596 455.79 18.3555C455.234 17.9515 454.489 17.7495 453.555 17.7495C452.646 17.7495 451.913 17.9515 451.358 18.3555C450.827 18.7596 450.436 19.5298 450.183 20.6662C449.931 21.7774 449.805 23.3936 449.805 25.5149C449.805 27.6109 449.931 29.2145 450.183 30.3256C450.436 31.4368 450.827 32.207 451.358 32.6363C451.913 33.0404 452.646 33.2424 453.555 33.2424ZM494.85 33.4318V20.3253C494.85 18.7596 494.181 17.9767 492.843 17.9767C492.009 17.9767 491.252 18.3177 490.57 18.9995C489.888 19.6813 489.333 20.6157 488.903 21.8026C488.499 22.9643 488.297 24.2901 488.297 25.78L487.54 20.098H488.449C488.979 19.0121 489.711 18.1409 490.646 17.4843C491.58 16.8277 492.78 16.4994 494.244 16.4994C495.81 16.4994 497.085 16.9035 498.07 17.7116C499.055 18.4944 499.548 19.4667 499.548 20.6283V33.4318H494.85ZM480.57 34V32.9394H490.759V34H480.57ZM483.6 33.4318V17.5601H488.297V33.4318H483.6ZM492.123 34V32.9394H502.01V34H492.123ZM480.57 18.0146V16.954H488.297V18.0146H480.57ZM524.187 34.4546C522.773 34.4546 521.612 34.0631 520.702 33.2803C519.793 32.4974 519.339 31.462 519.339 30.1741C519.339 28.962 519.755 27.9266 520.589 27.0679C521.447 26.1841 522.647 25.5149 524.187 25.0603C525.753 24.5805 527.584 24.3406 529.68 24.3406V19.8329C529.68 19.1763 529.427 18.6586 528.922 18.2798C528.443 17.901 527.786 17.7116 526.953 17.7116C526.246 17.7116 525.652 17.8378 525.172 18.0904C524.692 18.3429 524.453 18.6712 524.453 19.0753C524.453 19.3783 524.566 19.6435 524.793 19.8707C525.021 20.0728 525.134 20.4137 525.134 20.8935C525.134 21.4996 524.907 22.0173 524.453 22.4466C523.998 22.8506 523.43 23.0527 522.748 23.0527C522.091 23.0527 521.548 22.838 521.119 22.4087C520.715 21.9794 520.513 21.4364 520.513 20.7799C520.513 19.9717 520.829 19.252 521.46 18.6207C522.091 17.9641 522.95 17.4464 524.036 17.0676C525.147 16.6888 526.384 16.4994 527.748 16.4994C529.693 16.4994 531.284 16.8656 532.521 17.5979C533.758 18.305 534.377 19.2394 534.377 20.4011V31.6514C534.377 31.904 534.453 32.1186 534.604 32.2954C534.781 32.4469 534.983 32.5227 535.211 32.5227C535.438 32.5227 535.678 32.4217 535.93 32.2196C536.208 32.0176 536.574 31.6641 537.029 31.159L537.673 31.9166C536.385 33.6086 534.933 34.4546 533.317 34.4546C532.357 34.4546 531.587 34.2147 531.006 33.7348C530.425 33.255 530.034 32.5984 529.832 31.7651H529.68C529.2 32.4722 528.468 33.1035 527.483 33.6591C526.498 34.1894 525.4 34.4546 524.187 34.4546ZM526.612 32.3712C527.496 32.3712 528.228 32.0176 528.809 31.3105C529.39 30.5782 529.68 29.6312 529.68 28.4695V25.4391C527.912 25.4391 526.561 25.7927 525.627 26.4997C524.718 27.1816 524.263 28.1917 524.263 29.5302C524.263 30.3888 524.465 31.0832 524.869 31.6136C525.273 32.1186 525.854 32.3712 526.612 32.3712ZM612.094 34.4924C610.174 34.4924 608.394 34.0884 606.753 33.2803C605.111 32.4722 603.672 31.3863 602.434 30.0226C601.197 28.6337 600.225 27.0553 599.518 25.2876C598.836 23.5198 598.495 21.6511 598.495 19.6813C598.495 17.7368 598.836 15.8933 599.518 14.1508C600.225 12.3831 601.197 10.8174 602.434 9.45372C603.672 8.09003 605.111 7.01677 606.753 6.23391C608.394 5.45106 610.174 5.05963 612.094 5.05963C614.013 5.05963 615.793 5.45106 617.435 6.23391C619.102 7.01677 620.554 8.09003 621.791 9.45372C623.028 10.8174 623.988 12.3831 624.67 14.1508C625.377 15.8933 625.731 17.7368 625.731 19.6813C625.731 21.6511 625.377 23.5198 624.67 25.2876C623.988 27.0553 623.028 28.6337 621.791 30.0226C620.554 31.3863 619.102 32.4722 617.435 33.2803C615.793 34.0884 614.013 34.4924 612.094 34.4924ZM612.094 33.2424C613.356 33.2424 614.43 33.0404 615.314 32.6363C616.223 32.2323 616.955 31.5378 617.511 30.5529C618.066 29.5428 618.47 28.1665 618.723 26.424C618.975 24.6563 619.102 22.4213 619.102 19.7192C619.102 17.0171 618.975 14.7948 618.723 13.0523C618.47 11.3098 618.066 9.94616 617.511 8.96128C616.955 7.97639 616.223 7.28193 615.314 6.87787C614.43 6.47382 613.356 6.27179 612.094 6.27179C610.806 6.27179 609.72 6.47382 608.836 6.87787C607.952 7.28193 607.232 7.97639 606.677 8.96128C606.147 9.94616 605.755 11.3098 605.503 13.0523C605.25 14.7948 605.124 17.0045 605.124 19.6813C605.124 22.434 605.25 24.6941 605.503 26.4619C605.755 28.2043 606.159 29.5807 606.715 30.5908C607.27 31.5757 607.977 32.2701 608.836 32.6742C609.72 33.053 610.806 33.2424 612.094 33.2424ZM643.373 34V32.9394H646.403V18.0146H643.373V16.954H651.1V19.9086H651.252C651.984 18.5197 652.792 17.6106 653.676 17.1812C654.56 16.7267 655.355 16.4994 656.062 16.4994C657.047 16.4994 657.817 16.7646 658.373 17.2949C658.929 17.8252 659.206 18.5828 659.206 19.5677C659.206 20.5021 658.954 21.1965 658.449 21.6511C657.944 22.0804 657.338 22.2951 656.631 22.2951C656.025 22.2951 655.469 22.1183 654.964 21.7647C654.484 21.4112 654.244 20.9061 654.244 20.2495C654.244 19.9212 654.295 19.6687 654.396 19.4919C654.497 19.3152 654.547 19.1636 654.547 19.0374C654.547 18.9364 654.522 18.8606 654.471 18.8101C654.421 18.7343 654.295 18.6965 654.093 18.6965C653.739 18.6965 653.322 18.9616 652.843 19.4919C652.363 20.0223 651.946 20.7167 651.593 21.5753C651.264 22.434 651.1 23.381 651.1 24.4163V32.9394H654.017V34H643.373ZM680.091 33.4318V17.7116H684.826V33.4318H680.091ZM677.06 34V32.9394H687.553V34H677.06ZM676.871 18.1661V17.1055H684.826V18.1661H676.871ZM682.25 11.9538C681.518 11.9538 680.874 11.6886 680.318 11.1583C679.762 10.6027 679.485 9.94616 679.485 9.18856C679.485 8.43095 679.762 7.77437 680.318 7.21879C680.874 6.66322 681.518 6.38543 682.25 6.38543C683.008 6.38543 683.664 6.66322 684.22 7.21879C684.775 7.77437 685.053 8.43095 685.053 9.18856C685.053 9.94616 684.775 10.6027 684.22 11.1583C683.664 11.6886 683.008 11.9538 682.25 11.9538ZM713.017 46.311C711.502 46.311 710.138 46.0585 708.926 45.5534C707.714 45.0736 706.754 44.417 706.047 43.5837C705.365 42.7755 705.024 41.8664 705.024 40.8563C705.024 39.8714 705.327 39.0002 705.933 38.2426C706.565 37.5102 707.36 36.9168 708.32 36.4622V36.3107C707.31 35.9066 706.527 35.3763 705.971 34.7197C705.441 34.0631 705.176 33.2045 705.176 32.1439C705.176 30.9317 705.529 29.9595 706.236 29.2271C706.943 28.4695 707.979 27.9897 709.342 27.7877C708.383 27.2573 707.6 26.5503 706.994 25.6664C706.413 24.7573 706.123 23.7471 706.123 22.636C706.123 21.4491 706.438 20.4011 707.07 19.4919C707.726 18.5576 708.598 17.8252 709.683 17.2949C710.769 16.7646 711.944 16.4994 713.206 16.4994C714.368 16.4994 715.441 16.7141 716.426 17.1434C717.411 17.5474 718.232 18.1283 718.888 18.8859C719.166 18.1788 719.557 17.5979 720.063 17.1434C720.568 16.6888 721.174 16.4615 721.881 16.4615C722.487 16.4615 723.005 16.6509 723.434 17.0297C723.888 17.3833 724.116 17.8631 724.116 18.4692C724.116 18.949 723.977 19.3404 723.699 19.6435C723.421 19.9212 723.03 20.0601 722.525 20.0601C722.045 20.0601 721.717 19.9591 721.54 19.7571C721.363 19.5298 721.212 19.3152 721.085 19.1131C720.959 18.8859 720.732 18.7722 720.403 18.7722C720.201 18.7722 720.037 18.8606 719.911 19.0374C719.81 19.2141 719.734 19.5298 719.684 19.9844C719.911 20.3884 720.075 20.8177 720.176 21.2723C720.302 21.7016 720.366 22.1562 720.366 22.636C720.366 23.7976 720.037 24.8457 719.381 25.78C718.724 26.7144 717.853 27.4467 716.767 27.9771C715.681 28.4821 714.494 28.7347 713.206 28.7347H710.858C709.721 28.7347 708.8 28.9367 708.092 29.3408C707.411 29.7196 707.07 30.212 707.07 30.8181C707.07 31.2221 707.246 31.5757 707.6 31.8787C707.954 32.1565 708.459 32.2954 709.115 32.2954H717.07C718.257 32.2954 719.254 32.4595 720.063 32.7878C720.871 33.0909 721.477 33.6212 721.881 34.3788C722.31 35.1364 722.525 36.1592 722.525 37.4471C722.525 39.3411 722.095 40.9447 721.237 42.2579C720.403 43.5963 719.267 44.6064 717.828 45.2883C716.413 45.9701 714.81 46.311 713.017 46.311ZM713.547 45.061C714.759 45.061 715.908 44.7958 716.994 44.2655C718.08 43.7352 718.964 43.0028 719.646 42.0685C720.328 41.1341 720.669 40.0608 720.669 38.8486C720.669 38.0405 720.479 37.4345 720.1 37.0304C719.722 36.6264 719.128 36.4243 718.32 36.4243H709.873C709.469 36.7779 709.128 37.3587 708.85 38.1668C708.598 38.9749 708.471 39.7325 708.471 40.4396C708.471 41.778 708.926 42.8766 709.835 43.7352C710.769 44.619 712.007 45.061 713.547 45.061ZM713.206 27.5225C713.888 27.5225 714.406 27.3962 714.759 27.1437C715.138 26.8659 715.403 26.3735 715.555 25.6664C715.706 24.9593 715.782 23.9492 715.782 22.636C715.782 21.2976 715.694 20.2748 715.517 19.5677C715.365 18.8606 715.1 18.3682 714.721 18.0904C714.368 17.8126 713.863 17.6737 713.206 17.6737C712.575 17.6737 712.07 17.8126 711.691 18.0904C711.337 18.3429 711.085 18.8227 710.933 19.5298C710.807 20.2369 710.744 21.2597 710.744 22.5981C710.744 23.9618 710.807 24.9972 710.933 25.7043C711.085 26.3861 711.337 26.8659 711.691 27.1437C712.07 27.3962 712.575 27.5225 713.206 27.5225ZM743.207 33.4318V17.7116H747.942V33.4318H743.207ZM740.177 34V32.9394H750.669V34H740.177ZM739.987 18.1661V17.1055H747.942V18.1661H739.987ZM745.366 11.9538C744.634 11.9538 743.99 11.6886 743.434 11.1583C742.879 10.6027 742.601 9.94616 742.601 9.18856C742.601 8.43095 742.879 7.77437 743.434 7.21879C743.99 6.66322 744.634 6.38543 745.366 6.38543C746.124 6.38543 746.78 6.66322 747.336 7.21879C747.891 7.77437 748.169 8.43095 748.169 9.18856C748.169 9.94616 747.891 10.6027 747.336 11.1583C746.78 11.6886 746.124 11.9538 745.366 11.9538ZM781.777 33.4318V20.3253C781.777 18.7596 781.108 17.9767 779.77 17.9767C778.936 17.9767 778.179 18.3177 777.497 18.9995C776.815 19.6813 776.259 20.6157 775.83 21.8026C775.426 22.9643 775.224 24.2901 775.224 25.78L774.466 20.098H775.375C775.906 19.0121 776.638 18.1409 777.573 17.4843C778.507 16.8277 779.706 16.4994 781.171 16.4994C782.737 16.4994 784.012 16.9035 784.997 17.7116C785.982 18.4944 786.474 19.4667 786.474 20.6283V33.4318H781.777ZM767.496 34V32.9394H777.686V34H767.496ZM770.527 33.4318V17.5601H775.224V33.4318H770.527ZM779.05 34V32.9394H788.937V34H779.05ZM767.496 18.0146V16.954H775.224V18.0146H767.496ZM811.114 34.4546C809.7 34.4546 808.538 34.0631 807.629 33.2803C806.72 32.4974 806.265 31.462 806.265 30.1741C806.265 28.962 806.682 27.9266 807.516 27.0679C808.374 26.1841 809.574 25.5149 811.114 25.0603C812.68 24.5805 814.511 24.3406 816.607 24.3406V19.8329C816.607 19.1763 816.354 18.6586 815.849 18.2798C815.369 17.901 814.713 17.7116 813.879 17.7116C813.172 17.7116 812.579 17.8378 812.099 18.0904C811.619 18.3429 811.379 18.6712 811.379 19.0753C811.379 19.3783 811.493 19.6435 811.72 19.8707C811.947 20.0728 812.061 20.4137 812.061 20.8935C812.061 21.4996 811.834 22.0173 811.379 22.4466C810.925 22.8506 810.357 23.0527 809.675 23.0527C809.018 23.0527 808.475 22.838 808.046 22.4087C807.642 21.9794 807.44 21.4364 807.44 20.7799C807.44 19.9717 807.755 19.252 808.387 18.6207C809.018 17.9641 809.877 17.4464 810.963 17.0676C812.074 16.6888 813.311 16.4994 814.675 16.4994C816.619 16.4994 818.21 16.8656 819.448 17.5979C820.685 18.305 821.304 19.2394 821.304 20.4011V31.6514C821.304 31.904 821.38 32.1186 821.531 32.2954C821.708 32.4469 821.91 32.5227 822.137 32.5227C822.364 32.5227 822.604 32.4217 822.857 32.2196C823.135 32.0176 823.501 31.6641 823.955 31.159L824.599 31.9166C823.311 33.6086 821.859 34.4546 820.243 34.4546C819.284 34.4546 818.513 34.2147 817.933 33.7348C817.352 33.255 816.96 32.5984 816.758 31.7651H816.607C816.127 32.4722 815.395 33.1035 814.41 33.6591C813.425 34.1894 812.326 34.4546 811.114 34.4546ZM813.538 32.3712C814.422 32.3712 815.155 32.0176 815.735 31.3105C816.316 30.5782 816.607 29.6312 816.607 28.4695V25.4391C814.839 25.4391 813.488 25.7927 812.554 26.4997C811.644 27.1816 811.19 28.1917 811.19 29.5302C811.19 30.3888 811.392 31.0832 811.796 31.6136C812.2 32.1186 812.781 32.3712 813.538 32.3712ZM843.366 33.4318V6.04451H848.063V33.4318H843.366ZM840.335 34V32.9394H850.98V34H840.335ZM840.335 6.49907V5.43843H848.063V6.49907H840.335ZM920.176 21.045V19.9086H923.32C924.86 19.9086 926.11 19.7318 927.07 19.3783C928.029 18.9995 928.724 18.305 929.153 17.2949C929.608 16.2848 929.835 14.8327 929.835 12.9387C929.835 11.1457 929.658 9.79464 929.305 8.88551C928.951 7.95114 928.408 7.3198 927.676 6.99151C926.969 6.66322 926.085 6.49907 925.024 6.49907H911.463V5.43843H926.729C928.547 5.43843 930.176 5.76672 931.615 6.42331C933.08 7.0799 934.242 7.98902 935.1 9.15068C935.959 10.2871 936.388 11.6003 936.388 13.0902C936.388 14.6559 935.858 16.0448 934.797 17.257C933.762 18.4439 932.272 19.3783 930.327 20.0601C928.383 20.7167 926.047 21.045 923.32 21.045H920.176ZM911.463 34V32.9394H925.555V34H911.463ZM915.327 33.4318V5.43843H920.857V33.4318H915.327ZM953.442 34V32.9394H956.472V18.0146H953.442V16.954H961.169V19.9086H961.321C962.053 18.5197 962.861 17.6106 963.745 17.1812C964.629 16.7267 965.424 16.4994 966.131 16.4994C967.116 16.4994 967.887 16.7646 968.442 17.2949C968.998 17.8252 969.276 18.5828 969.276 19.5677C969.276 20.5021 969.023 21.1965 968.518 21.6511C968.013 22.0804 967.407 22.2951 966.7 22.2951C966.094 22.2951 965.538 22.1183 965.033 21.7647C964.553 21.4112 964.313 20.9061 964.313 20.2495C964.313 19.9212 964.364 19.6687 964.465 19.4919C964.566 19.3152 964.616 19.1636 964.616 19.0374C964.616 18.9364 964.591 18.8606 964.541 18.8101C964.49 18.7343 964.364 18.6965 964.162 18.6965C963.808 18.6965 963.391 18.9616 962.912 19.4919C962.432 20.0223 962.015 20.7167 961.662 21.5753C961.333 22.434 961.169 23.381 961.169 24.4163V32.9394H964.086V34H953.442ZM995.943 34.4924C994.68 34.4924 993.493 34.2652 992.382 33.8106C991.296 33.3308 990.324 32.6742 989.465 31.8408C988.632 31.0075 987.975 30.0478 987.495 28.962C987.015 27.8761 986.776 26.7144 986.776 25.477C986.776 24.2396 987.015 23.0779 987.495 21.992C987.975 20.9061 988.632 19.9591 989.465 19.151C990.324 18.3177 991.296 17.6737 992.382 17.2191C993.493 16.7393 994.692 16.4994 995.98 16.4994C997.243 16.4994 998.43 16.7393 999.541 17.2191C1000.65 17.6737 1001.62 18.3177 1002.46 19.151C1003.32 19.9591 1003.97 20.9061 1004.43 21.992C1004.91 23.0779 1005.15 24.2396 1005.15 25.477C1005.15 26.7144 1004.91 27.8761 1004.43 28.962C1003.97 30.0478 1003.32 31.0075 1002.46 31.8408C1001.62 32.6742 1000.65 33.3308 999.541 33.8106C998.43 34.2652 997.23 34.4924 995.943 34.4924ZM995.943 33.2424C996.877 33.2424 997.622 33.0404 998.177 32.6363C998.733 32.207 999.137 31.4368 999.39 30.3256C999.642 29.2145 999.768 27.6109 999.768 25.5149C999.768 23.3936 999.642 21.7774 999.39 20.6662C999.137 19.5298 998.733 18.7596 998.177 18.3555C997.622 17.9515 996.877 17.7495 995.943 17.7495C995.033 17.7495 994.301 17.9515 993.745 18.3555C993.215 18.7596 992.824 19.5298 992.571 20.6662C992.319 21.7774 992.192 23.3936 992.192 25.5149C992.192 27.6109 992.319 29.2145 992.571 30.3256C992.824 31.4368 993.215 32.207 993.745 32.6363C994.301 33.0404 995.033 33.2424 995.943 33.2424ZM1031.48 34.4546C1030.17 34.4546 1028.93 34.0884 1027.77 33.356C1026.61 32.5984 1025.65 31.5504 1024.89 30.212C1024.16 28.8483 1023.79 27.27 1023.79 25.477C1023.79 23.684 1024.16 22.1183 1024.89 20.7799C1025.62 19.4162 1026.57 18.3682 1027.73 17.6358C1028.89 16.8782 1030.13 16.4994 1031.44 16.4994C1032.63 16.4994 1033.66 16.7519 1034.55 17.257C1035.46 17.7621 1036.11 18.3934 1036.52 19.151H1037.43L1036.67 24.9088C1036.67 22.4592 1036.23 20.6788 1035.34 19.5677C1034.49 18.4565 1033.41 17.901 1032.12 17.901C1031.42 17.901 1030.85 18.103 1030.42 18.5071C1029.99 18.9111 1029.67 19.6687 1029.47 20.7799C1029.27 21.8658 1029.17 23.4441 1029.17 25.5149C1029.17 27.5604 1029.26 29.1387 1029.43 30.2499C1029.64 31.3358 1029.95 32.0807 1030.38 32.4848C1030.81 32.8636 1031.38 33.053 1032.09 33.053C1033.37 33.053 1034.46 32.4974 1035.34 31.3863C1036.23 30.2499 1036.67 28.4695 1036.67 26.0452L1037.43 31.803H1036.52C1036.11 32.5606 1035.47 33.1919 1034.59 33.697C1033.7 34.202 1032.67 34.4546 1031.48 34.4546ZM1036.67 34V32.9394H1044.17V34H1036.67ZM1036.67 33.4318V6.04451H1041.37V33.4318H1036.67ZM1032.92 6.49907V5.43843H1041.37V6.49907H1032.92ZM1068.21 34.4924C1066.72 34.4924 1065.51 34.0884 1064.57 33.2803C1063.66 32.4469 1063.21 31.462 1063.21 30.3256V17.5222H1067.91V29.9847C1067.91 30.9696 1068.07 31.6893 1068.4 32.1439C1068.73 32.5984 1069.21 32.8257 1069.84 32.8257C1070.67 32.8257 1071.4 32.4974 1072.04 31.8408C1072.69 31.1842 1073.21 30.2878 1073.59 29.1514C1073.99 28.0149 1074.19 26.7397 1074.19 25.3255L1074.95 31.0075H1074.04C1073.54 32.0429 1072.78 32.8889 1071.77 33.5454C1070.79 34.1768 1069.6 34.4924 1068.21 34.4924ZM1074.19 34V32.9394H1081.88V34H1074.19ZM1060.25 18.0146V16.954H1067.91V18.0146H1060.25ZM1074.19 33.4318V17.5222H1078.89V33.4318H1074.19ZM1071.09 18.0146V16.954H1078.89V18.0146H1071.09ZM1108.32 34.4924C1107.08 34.4924 1105.9 34.2399 1104.79 33.7348C1103.71 33.2298 1102.75 32.5479 1101.91 31.6893C1101.08 30.8307 1100.42 29.8584 1099.95 28.7726C1099.49 27.6867 1099.26 26.5755 1099.26 25.4391C1099.26 24.328 1099.49 23.2421 1099.95 22.1814C1100.42 21.1208 1101.07 20.1611 1101.88 19.3025C1102.71 18.4439 1103.68 17.7621 1104.79 17.257C1105.93 16.7519 1107.17 16.4994 1108.51 16.4994C1109.67 16.4994 1110.73 16.7014 1111.69 17.1055C1112.67 17.4843 1113.44 18.002 1114 18.6586C1114.58 19.3152 1114.87 20.098 1114.87 21.0071C1114.87 21.8152 1114.62 22.4466 1114.11 22.9011C1113.63 23.3557 1113 23.583 1112.22 23.583C1111.51 23.583 1110.91 23.381 1110.4 22.9769C1109.92 22.5728 1109.68 22.0046 1109.68 21.2723C1109.68 20.8177 1109.77 20.4768 1109.95 20.2495C1110.12 19.997 1110.29 19.7697 1110.44 19.5677C1110.61 19.3657 1110.7 19.1131 1110.7 18.8101C1110.7 18.406 1110.51 18.1156 1110.13 17.9389C1109.78 17.7368 1109.25 17.6358 1108.54 17.6358C1107.71 17.6358 1107 17.8505 1106.42 18.2798C1105.84 18.7091 1105.4 19.5046 1105.1 20.6662C1104.82 21.8279 1104.68 23.5325 1104.68 25.78C1104.68 27.7498 1104.79 29.2776 1105.02 30.3635C1105.27 31.4494 1105.69 32.207 1106.27 32.6363C1106.85 33.0404 1107.62 33.2424 1108.58 33.2424C1109.95 33.2424 1111.09 32.8636 1112.03 32.106C1112.96 31.3484 1113.77 30.111 1114.45 28.3938H1115.63C1115.12 30.212 1114.25 31.6893 1113.01 32.8257C1111.78 33.9369 1110.21 34.4924 1108.32 34.4924ZM1139.67 34.4924C1138.26 34.4924 1137.21 34.2273 1136.53 33.697C1135.87 33.1414 1135.54 32.3459 1135.54 31.3105V18.0525H1132.47V16.954C1133.41 16.8782 1134.28 16.5373 1135.09 15.9312C1135.89 15.3251 1136.63 14.5423 1137.28 13.5826C1137.97 12.623 1138.52 11.575 1138.95 10.4386H1140.24V16.954H1144.59V18.0525H1140.24V30.856C1140.24 31.9924 1140.72 32.5606 1141.68 32.5606C1142.18 32.5606 1142.64 32.3964 1143.04 32.0681C1143.47 31.7146 1143.92 31.1211 1144.4 30.2878L1145.24 30.7802C1144.58 32.1691 1143.82 33.1414 1142.97 33.697C1142.11 34.2273 1141.01 34.4924 1139.67 34.4924ZM1164.65 33.4318V17.7116H1169.39V33.4318H1164.65ZM1161.62 34V32.9394H1172.11V34H1161.62ZM1161.43 18.1661V17.1055H1169.39V18.1661H1161.43ZM1166.81 11.9538C1166.08 11.9538 1165.44 11.6886 1164.88 11.1583C1164.32 10.6027 1164.05 9.94616 1164.05 9.18856C1164.05 8.43095 1164.32 7.77437 1164.88 7.21879C1165.44 6.66322 1166.08 6.38543 1166.81 6.38543C1167.57 6.38543 1168.23 6.66322 1168.78 7.21879C1169.34 7.77437 1169.61 8.43095 1169.61 9.18856C1169.61 9.94616 1169.34 10.6027 1168.78 11.1583C1168.23 11.6886 1167.57 11.9538 1166.81 11.9538ZM1198.9 34.4924C1197.64 34.4924 1196.45 34.2652 1195.34 33.8106C1194.26 33.3308 1193.29 32.6742 1192.43 31.8408C1191.59 31.0075 1190.94 30.0478 1190.46 28.962C1189.98 27.8761 1189.74 26.7144 1189.74 25.477C1189.74 24.2396 1189.98 23.0779 1190.46 21.992C1190.94 20.9061 1191.59 19.9591 1192.43 19.151C1193.29 18.3177 1194.26 17.6737 1195.34 17.2191C1196.45 16.7393 1197.65 16.4994 1198.94 16.4994C1200.2 16.4994 1201.39 16.7393 1202.5 17.2191C1203.61 17.6737 1204.59 18.3177 1205.42 19.151C1206.28 19.9591 1206.93 20.9061 1207.39 21.992C1207.87 23.0779 1208.11 24.2396 1208.11 25.477C1208.11 26.7144 1207.87 27.8761 1207.39 28.962C1206.93 30.0478 1206.28 31.0075 1205.42 31.8408C1204.59 32.6742 1203.61 33.3308 1202.5 33.8106C1201.39 34.2652 1200.19 34.4924 1198.9 34.4924ZM1198.9 33.2424C1199.84 33.2424 1200.58 33.0404 1201.14 32.6363C1201.69 32.207 1202.1 31.4368 1202.35 30.3256C1202.6 29.2145 1202.73 27.6109 1202.73 25.5149C1202.73 23.3936 1202.6 21.7774 1202.35 20.6662C1202.1 19.5298 1201.69 18.7596 1201.14 18.3555C1200.58 17.9515 1199.84 17.7495 1198.9 17.7495C1198 17.7495 1197.26 17.9515 1196.71 18.3555C1196.18 18.7596 1195.79 19.5298 1195.53 20.6662C1195.28 21.7774 1195.15 23.3936 1195.15 25.5149C1195.15 27.6109 1195.28 29.2145 1195.53 30.3256C1195.79 31.4368 1196.18 32.207 1196.71 32.6363C1197.26 33.0404 1198 33.2424 1198.9 33.2424ZM1240.2 33.4318V20.3253C1240.2 18.7596 1239.53 17.9767 1238.19 17.9767C1237.36 17.9767 1236.6 18.3177 1235.92 18.9995C1235.24 19.6813 1234.68 20.6157 1234.25 21.8026C1233.85 22.9643 1233.65 24.2901 1233.65 25.78L1232.89 20.098H1233.8C1234.33 19.0121 1235.06 18.1409 1236 17.4843C1236.93 16.8277 1238.13 16.4994 1239.59 16.4994C1241.16 16.4994 1242.43 16.9035 1243.42 17.7116C1244.4 18.4944 1244.9 19.4667 1244.9 20.6283V33.4318H1240.2ZM1225.92 34V32.9394H1236.11V34H1225.92ZM1228.95 33.4318V17.5601H1233.65V33.4318H1228.95ZM1237.47 34V32.9394H1247.36V34H1237.47ZM1225.92 18.0146V16.954H1233.65V18.0146H1225.92Z" fill="#EB1B27"/>
</svg>
