<svg width="40" height="40" viewBox="0 0 40 40" fill="none" xmlns="http://www.w3.org/2000/svg">
<g id="Frame 342">
<path id="Subtract" fill-rule="evenodd" clip-rule="evenodd" d="M10.508 9C8.78632 9 7.27344 10.1083 6.95965 11.8012C6.60868 13.6947 6.25 16.4887 6.25 20C6.25 23.5113 6.60868 26.3053 6.95965 28.1988C7.27344 29.8917 8.78632 31 10.508 31H29.492C31.2137 31 32.7266 29.8917 33.0404 28.1988C33.3913 26.3053 33.75 23.5113 33.75 20C33.75 16.4887 33.3913 13.6947 33.0404 11.8012C32.7266 10.1083 31.2137 9 29.492 9H10.508ZM17.25 24.7631L25.5 20L17.25 15.2369V24.7631Z" fill="white"/>
</g>
</svg>
